<svg width="16" height="16" viewBox="0 0 109 77" fill="none" xmlns="http://www.w3.org/2000/svg">
    <path d="M99.26 2.37088C93.22 -0.969124 86.12 -0.769125 80.27 2.90088L76.43 5.31088L53.85 19.5109C52.7 20.2309 52.35 21.7609 53.07 22.9109C53.54 23.6609 54.34 24.0609 55.16 24.0609C55.61 24.0609 56.06 23.9409 56.47 23.6809L79.93 8.94087L82.89 7.08088C87.19 4.38088 92.42 4.23088 96.87 6.69088C101.32 9.15088 103.97 13.6509 103.97 18.7309V20.8309C105.61 20.7709 107.26 20.7409 108.9 20.7409V18.7309C108.91 11.8309 105.3 5.71088 99.26 2.37088Z" fill="url(#paint0_linear_21_605)"/>
    <path d="M26.91 57.1609V52.5509C26.91 48.2309 23.39 44.7109 19.07 44.7109C14.75 44.7109 11.23 48.2309 11.23 52.5509V57.1609C11.23 61.4809 14.75 65.0009 19.07 65.0009C23.39 65.0009 26.91 61.4809 26.91 57.1609ZM22.8 57.1609C22.8 59.2209 21.13 60.8909 19.07 60.8909C17.01 60.8909 15.34 59.2209 15.34 57.1609V55.5909H15.49C17.47 55.5909 19.07 53.9909 19.07 52.0109V48.8309C21.13 48.8309 22.8 50.5009 22.8 52.5609V57.1609Z" fill="#231F20"/>
    <path d="M9.65003 74.4909C15.69 77.8309 22.79 77.6309 28.64 73.9609L32.48 71.5509L55.06 57.3509C56.21 56.6309 56.56 55.1009 55.84 53.9509C55.37 53.2009 54.57 52.8009 53.75 52.8009C53.3 52.8009 52.85 52.9209 52.44 53.1809L28.98 67.9209L26.02 69.7809C21.72 72.4809 16.49 72.6309 12.04 70.1709C7.59003 67.7109 4.94003 63.2109 4.94003 58.1309V56.0309C3.30003 56.0909 1.65003 56.1209 0.0100305 56.1209V58.1309C3.04868e-05 65.0309 3.61003 71.1509 9.65003 74.4909Z" fill="url(#paint1_linear_21_605)"/>
    <path d="M108.76 16.3409C107.15 16.6609 105.53 16.9709 103.9 17.2809C103.95 17.7609 103.98 18.2409 103.98 18.7309V25.4009C103.98 30.4809 101.32 34.9809 96.88 37.4409C92.43 39.9009 87.21 39.7509 82.91 37.0509L28.64 2.91087C22.79 -0.75913 15.7 -0.95913 9.65 2.38087C3.61 5.72087 0 11.8409 0 18.7409V58.1309C0 59.0009 0.0600001 59.8609 0.17 60.7009C1.81 60.4509 3.43 60.2109 5.05 59.9809C4.97 59.3809 4.93 58.7609 4.93 58.1309V51.4609C4.93 46.3809 7.59 41.8809 12.03 39.4209C16.48 36.9609 21.7 37.1109 26.01 39.8109L50.1 54.9509L80.26 73.9409C83.33 75.8709 86.76 76.8409 90.19 76.8409C93.28 76.8409 96.38 76.0509 99.25 74.4709C105.29 71.1309 108.9 65.0109 108.9 58.1109V18.7309C108.91 17.9209 108.86 17.1209 108.76 16.3409ZM103.98 58.1209C103.98 63.2009 101.32 67.7009 96.88 70.1609C92.43 72.6209 87.21 72.4709 82.91 69.7709L28.64 35.6409C22.79 31.9709 15.7 31.7709 9.65 35.1109C7.85 36.1109 6.27 37.3509 4.93 38.7909V35.1609C4.93 30.0809 7.59 25.5809 12.03 23.1209C16.48 20.6609 21.7 20.8109 26.01 23.5109L80.27 57.5309C83.34 59.4609 86.77 60.4309 90.2 60.4309C93.29 60.4309 96.39 59.6409 99.26 58.0609C101.06 57.0609 102.64 55.8209 103.98 54.3809V58.1209ZM103.98 41.7009C103.98 46.7809 101.32 51.2809 96.88 53.7409C92.43 56.2009 87.21 56.0509 82.9 53.3509L52.73 34.4709L28.64 19.3309C22.79 15.6609 15.7 15.4609 9.65 18.8009C7.85 19.8009 6.27 21.0409 4.93 22.4809V18.7409C4.93 13.6609 7.59 9.16087 12.03 6.70087C16.48 4.24087 21.7 4.39087 26.01 7.09087L50.1 22.2309L80.26 41.2209C83.33 43.1509 86.76 44.1209 90.19 44.1209C93.28 44.1209 96.38 43.3309 99.25 41.7509C101.05 40.7509 102.63 39.5109 103.97 38.0709V41.7009H103.98Z" fill="#231F20"/>
    <defs>
        <linearGradient id="paint0_linear_21_605" x1="36.2027" y1="64.8704" x2="113.441" y2="-11.7028" gradientUnits="userSpaceOnUse">
            <stop offset="0.4393" stop-color="#231F20" stop-opacity="0"/>
            <stop offset="0.5834" stop-color="#231F20"/>
        </linearGradient>
        <linearGradient id="paint1_linear_21_605" x1="72.7107" y1="11.9925" x2="-4.52777" y2="88.5658" gradientUnits="userSpaceOnUse">
            <stop offset="0.4393" stop-color="#231F20" stop-opacity="0"/>
            <stop offset="0.5834" stop-color="#231F20"/>
        </linearGradient>
    </defs>
</svg>
